HIERARCHY
ROOT Hips
{
    OFFSET 0.000000 0.000000 0.000000
    CHANNELS 6 Xposition Yposition Zposition Zrotation Xrotation Yrotation
    JOINT Spine
    {
        OFFSET -0.000000 7.750029 0.000000
        CHANNELS 3 Zrotation Xrotation Yrotation
        JOINT Spine1
        {
            OFFSET -0.000000 19.767460 0.000000
            CHANNELS 3 Zrotation Xrotation Yrotation
            JOINT Neck
            {
                OFFSET -0.000000 19.686279 1.789662
                CHANNELS 3 Zrotation Xrotation Yrotation
                JOINT Head
                {
                    OFFSET -0.000000 13.231757 -1.890251
                    CHANNELS 3 Zrotation Xrotation Yrotation
                    End Site
                    {
                        OFFSET -0.000000 23.628138 0.000000
                    }
                }
            }
            JOINT LeftShoulder
            {
                OFFSET 3.736819 16.910755 -0.280982
                CHANNELS 3 Zrotation Xrotation Yrotation
                JOINT LeftArm
                {
                    OFFSET 13.626117 0.000000 0.000000
                    CHANNELS 3 Zrotation Xrotation Yrotation
                    JOINT LeftForeArm
                    {
                        OFFSET 31.364786 0.000000 0.000000
                        CHANNELS 3 Zrotation Xrotation Yrotation
                        JOINT LeftHand
                        {
                            OFFSET 23.389509 0.000000 0.000000
                            CHANNELS 3 Zrotation Xrotation Yrotation
                            End Site
                            {
                                OFFSET 14.176883 0.000000 0.000000
                            }
                        }
                    }
                }
            }
            JOINT RightShoulder
            {
                OFFSET -3.821718 16.910755 -0.280982
                CHANNELS 3 Zrotation Xrotation Yrotation
                JOINT RightArm
                {
                    OFFSET -13.626117 0.000000 0.000000
                    CHANNELS 3 Zrotation Xrotation Yrotation
                    JOINT RightForeArm
                    {
                        OFFSET -31.364786 0.000000 0.000000
                        CHANNELS 3 Zrotation Xrotation Yrotation
                        JOINT RightHand
                        {
                            OFFSET -23.389509 0.000000 0.000000
                            CHANNELS 3 Zrotation Xrotation Yrotation
                            End Site
                            {
                                OFFSET -14.176883 0.000000 0.000000
                            }
                        }
                    }
                }
            }
        }
    }
    JOINT LeftUpLeg
    {
        OFFSET 9.451255 0.000000 0.000000
        CHANNELS 3 Zrotation Xrotation Yrotation
        JOINT LeftLeg
        {
            OFFSET -0.000000 -41.898624 0.000000
            CHANNELS 3 Zrotation Xrotation Yrotation
            JOINT LeftFoot
            {
                OFFSET -0.000000 -38.481331 0.000000
                CHANNELS 3 Zrotation Xrotation Yrotation
                JOINT LeftToeBase
                {
                    OFFSET -0.000000 -6.143315 14.176883
                    CHANNELS 3 Zrotation Xrotation Yrotation
                    End Site
                    {
                        OFFSET -0.000000 0.000000 3.780502
                    }
                }
            }
        }
    }
    JOINT RightUpLeg
    {
        OFFSET -9.451255 0.000000 0.000000
        CHANNELS 3 Zrotation Xrotation Yrotation
        JOINT RightLeg
        {
            OFFSET -0.000000 -41.898624 0.000000
            CHANNELS 3 Zrotation Xrotation Yrotation
            JOINT RightFoot
            {
                OFFSET -0.000000 -38.481331 0.000000
                CHANNELS 3 Zrotation Xrotation Yrotation
                JOINT RightToeBase
                {
                    OFFSET -0.000000 -6.143315 14.176883
                    CHANNELS 3 Zrotation Xrotation Yrotation
                    End Site
                    {
                        OFFSET -0.000000 0.000000 3.780502
                    }
                }
            }
        }
    }
}
MOTION
Frames:    8
Frame Time:    0.010000
5.725133    92.153267    -38.785191    13.047147    5.593705    -160.907761    10.778310    2.786876    10.256448    -13.304232    4.489969    11.043309    -12.084813    36.132290    -11.832253    10.949981    -35.780109    -9.866471    -1.815808    -2.898448    -2.769256    -60.068054    55.548431    -4.886068    21.817532    -30.358738    -80.101357    -10.641118    -13.013422    -0.329923    -15.650888    -4.770918    26.336729    30.490311    27.782213    34.761921    -10.978246    -22.093287    23.689734    42.181927    -15.104504    13.079365    13.331811    -22.962553    -22.441437    -3.920354    20.278603    -16.952374    -6.878857    6.291132    4.230249    0.000000    0.000000    0.000000    6.358246    6.681995    -21.154839    6.664351    43.825127    -1.098597    11.568577    26.663891    -15.947289    0.000000    0.000000    0.000000    
5.732249    91.870674    -38.562740    13.086625    4.933964    -159.418549    10.665009    2.776607    10.409943    -12.750064    4.268187    11.146244    -12.330695    36.206055    -12.067609    11.308648    -35.761997    -10.014218    -1.932782    -2.791431    -3.114105    -60.339462    56.299068    -4.977381    21.175005    -30.314838    -80.033073    -10.191853    -13.562764    -0.133952    -16.418980    -3.709599    24.731293    30.847569    30.591618    36.526302    -12.745137    -23.123060    23.155504    42.081409    -15.605551    13.838420    12.558162    -24.602837    -23.661043    -4.169026    20.861261    -16.800600    -6.809920    6.268340    3.935153    0.000000    0.000000    0.000000    6.201723    5.607902    -21.250690    7.794111    44.214737    -2.468871    12.550668    26.131643    -16.086891    0.000000    0.000000    0.000000    
5.738006    91.635101    -38.327263    13.286798    4.337046    -158.168243    11.093948    3.145757    10.388979    -13.007597    3.408644    11.083263    -12.334626    36.245975    -12.176925    11.802690    -35.546783    -9.937050    -1.501389    -0.864919    -2.215625    -57.418854    56.091705    -8.990014    20.473557    -29.653873    -79.898003    -11.539273    -13.516280    0.367370    -16.943785    -3.204290    23.961338    33.307236    31.694502    37.113266    -13.199180    -23.316338    23.065866    41.315208    -16.021372    13.319880    11.979970    -26.134739    -24.556299    -4.358092    21.393248    -16.601616    -6.853487    6.355720    3.561076    0.000000    0.000000    0.000000    6.102780    4.428882    -22.345200    7.773763    44.924454    -2.337498    13.135849    25.846956    -16.080406    0.000000    0.000000    0.000000    
5.769057    91.464958    -38.155033    13.395644    3.883759    -157.415909    11.022591    3.094028    10.722737    -12.777777    3.082910    11.366613    -11.426293    36.911320    -12.652315    11.846375    -36.203720    -10.243836    -1.341414    -0.685535    -2.888577    -58.000774    56.109146    -8.631316    19.698372    -29.510870    -79.985901    -12.644398    -14.055729    0.892841    -17.172920    -2.312046    22.819586    34.982544    32.632442    37.966812    -13.604650    -22.491840    22.888201    39.338764    -15.126395    13.965732    11.597283    -27.201752    -24.804790    -4.443363    21.778154    -16.650204    -6.798799    6.468427    3.181178    0.000000    0.000000    0.000000    6.095046    3.665512    -21.477816    9.062236    45.038990    -4.218633    13.618325    25.394669    -16.305983    0.000000    0.000000    0.000000    
5.837256    91.392563    -38.165386    13.439530    3.986638    -156.732513    10.805334    3.093812    10.859672    -12.356622    3.052812    11.482880    -10.668878    37.203915    -12.882318    12.056722    -36.141747    -10.270477    -0.879081    0.229243    -2.951976    -57.394093    55.728653    -10.001912    18.829805    -29.036884    -79.913185    -13.828054    -14.369351    1.482296    -16.555088    -1.869795    22.411453    37.155231    32.707058    37.612862    -13.037889    -21.125555    23.302774    36.347187    -14.091993    14.188958    11.467319    -27.503548    -24.823120    -4.426302    22.001863    -17.124441    -7.235337    6.613015    3.338011    0.000000    0.000000    0.000000    6.368419    3.526028    -21.605328    9.200171    45.238003    -4.468915    14.331476    25.083935    -16.636749    0.000000    0.000000    0.000000    
5.883096    91.277740    -37.998997    13.442914    3.804783    -156.300613    10.605241    3.132907    10.984531    -12.373589    2.749885    11.573524    -9.029023    37.943974    -13.273828    11.655035    -37.128868    -10.481035    -0.247483    0.636078    -2.984142    -57.841640    55.921429    -10.290773    18.238121    -29.210005    -79.777161    -14.655747    -15.200474    2.213624    -15.151223    -1.519882    22.231855    38.019260    33.912285    37.123013    -12.851920    -21.887915    24.167395    34.729317    -15.081347    14.052599    11.175455    -28.095634    -24.694876    -4.339647    22.331358    -17.686190    -7.409244    6.611938    3.408696    0.000000    0.000000    0.000000    6.372031    3.078598    -20.946951    9.963404    45.541050    -5.204648    15.047783    24.351585    -17.232861    0.000000    0.000000    0.000000    
5.873419    91.189323    -37.850159    13.248446    3.854343    -156.236023    10.470440    3.232022    11.095034    -12.648254    2.831716    11.705146    -7.758633    38.104542    -13.396494    11.507818    -37.406528    -10.380252    0.520966    0.821379    -2.791000    -58.452282    55.421459    -10.660631    17.184160    -28.521479    -79.663109    -14.806111    -15.321583    1.915064    -13.712657    -1.115217    22.016171    38.587795    34.618919    37.079540    -12.598172    -21.562618    24.853716    32.878227    -14.900359    14.260631    10.899948    -28.097387    -24.665138    -4.257279    22.391670    -17.788084    -7.365013    6.630769    3.365243    0.000000    0.000000    0.000000    6.249112    2.928195    -20.494724    10.089179    46.033482    -5.174736    15.599800    23.611506    -17.267338    0.000000    0.000000    0.000000    
5.898705    91.091286    -37.662884    12.904222    3.968836    -156.187775    10.042386    3.525925    11.111307    -12.482530    2.861804    11.734244    -7.097106    38.038811    -13.271114    11.349059    -37.587841    -10.151251    0.912617    0.889270    -2.623153    -59.172035    55.047737    -10.658474    16.354992    -28.162052    -79.701828    -15.271169    -15.709773    2.626399    -12.951753    -0.752276    21.660410    39.268745    35.471016    37.369221    -12.037976    -22.565134    26.101891    31.170763    -16.437536    13.213070    10.519408    -27.982090    -24.999409    -4.304769    22.364899    -17.455551    -7.480667    6.722965    3.329534    0.000000    0.000000    0.000000    6.050151    2.947356    -19.877661    10.351949    46.440468    -5.366204    15.667967    22.837029    -16.608902    0.000000    0.000000    0.000000    
